<svg width="244.352" height="213.179" version="1.0" style="display:inline;enable-background:new" xmlns:xlink="http://www.w3.org/1999/xlink" xmlns="http://www.w3.org/2000/svg"><defs><linearGradient id="b"><stop offset="0" style="stop-color:#847784;stop-opacity:.99607843"/><stop offset="1" style="stop-color:#695f69;stop-opacity:1"/></linearGradient><linearGradient y2="288" x2="256" y1="50" x1="256" gradientTransform="matrix(1.85806 0 0 1.87368 4.439 -288.652)" gradientUnits="userSpaceOnUse" id="a" xlink:href="#b"/><linearGradient xlink:href="#c" id="f" x1="120" y1="64" x2="176" y2="224" gradientUnits="userSpaceOnUse" gradientTransform="rotate(180 152 143.985)"/><linearGradient id="c"><stop offset="0" style="stop-color:#f7f7f7;stop-opacity:1"/><stop offset="1" style="stop-color:#e6e6e6;stop-opacity:1"/></linearGradient><filter style="color-interpolation-filters:sRGB" id="d" x="-.014" width="1.029" y="-.011" height="1.023"><feGaussianBlur stdDeviation="2.12"/></filter><filter style="color-interpolation-filters:sRGB" id="e" x="-.058" width="1.116" y="-.045" height="1.091"><feGaussianBlur stdDeviation="8.48"/></filter></defs><g style="display:inline"><g style="display:inline;opacity:1" transform="translate(-29.821 -46.821)"><path style="display:inline;opacity:1;fill:#4d4d4d;fill-opacity:1;stroke:none;stroke-width:5.33333;enable-background:new" d="M124 222.33V244c0 2.216-1.784 4-4 4h-.002v6.33h64V248a3.991 3.991 0 0 1-3.998-4v-21.67z"/><rect style="display:inline;opacity:1;fill:#4d4d4d;fill-opacity:1;stroke:none;stroke-width:4.6188;enable-background:new" width="128" height="12" x="88" y="248" rx="4" ry="4"/><path style="color:#000;display:inline;overflow:visible;visibility:visible;opacity:.1;fill:#000;fill-opacity:1;fill-rule:nonzero;stroke:none;stroke-width:2;marker:none;filter:url(#d);enable-background:accumulate" d="M189.843 74c-70.593 0-78.189 7.25-77.843 77.987v292.026c-.346 70.736 7.25 77.987 77.843 77.987h196.314c70.593 0 76.006-7.274 77.843-77.987V151.987C464 81.25 456.75 74 386.157 74Z" transform="rotate(90 149.997 151) scale(.5)"/><path d="M189.843 74c-70.593 0-78.189 7.25-77.843 77.987v292.026c-.346 70.736 7.25 77.987 77.843 77.987h196.314C456.75 522 464 514.75 464 444.013V151.987C464 81.25 456.75 74 386.157 74Z" style="color:#000;display:inline;overflow:visible;visibility:visible;opacity:.1;fill:#000;fill-opacity:1;fill-rule:nonzero;stroke:none;stroke-width:2;marker:none;filter:url(#e);enable-background:accumulate" transform="rotate(90 149.997 151) scale(.5)"/><path style="opacity:.1;fill:#000;fill-opacity:1;stroke:none" d="M124 222.33V244c0 2.216-1.784 4-4 4h63.998a3.991 3.991 0 0 1-3.998-4v-21.67z"/></g><g style="display:inline"><path style="color:#000;display:inline;overflow:visible;visibility:visible;fill:#4d4d4d;fill-opacity:1;fill-rule:nonzero;stroke:none;stroke-width:1;marker:none;enable-background:accumulate" d="M263.997 193.076c0 35.296-3.625 39.094-38.993 38.921H78.99c-35.368.173-38.994-3.625-38.994-38.921V94.919c0-35.297 3.625-38.922 38.994-38.922h146.013c35.368 0 38.993 3.625 38.993 38.922z" transform="translate(-29.821 -46.821)"/><path style="color:#000;display:inline;overflow:visible;visibility:visible;opacity:.2;fill:#000;fill-opacity:1;fill-rule:nonzero;stroke:none;stroke-width:1;marker:none;enable-background:accumulate" d="M39.998 191.076v2c0 35.297 3.624 39.095 38.992 38.922h146.014c35.368.173 38.994-3.625 38.994-38.922v-2c0 35.297-3.626 39.095-38.994 38.922H78.99c-35.368.173-38.992-3.625-38.992-38.922z" transform="translate(-29.821 -46.821)"/><path style="opacity:1;fill:url(#f);fill-opacity:1;stroke:none;stroke-width:.705957" d="M142.965 223.954c33.324-.31 66.6.265 99.89-.963 5.34-.245 11.15-3.06 11.758-8.984 2.14-11.798.894-23.831 1.335-35.734-.21-33.093.583-66.301-.709-99.174-.181-5.444-1.611-13.004-8.315-13.614-12.705-2.459-25.699-.876-38.524-1.445-48.483.035-97.016-.403-145.433.56-5.614-.12-12.49 1.991-13.334 8.454-2.396 10.535-1.02 21.502-1.523 32.162.16 34.66-.64 69.485.593 103.913-.039 5.433 2.062 12.632 8.6 12.969 17.697 2.827 35.688 1.352 53.51 1.861 10.717.02 21.434.011 32.152-.005z" transform="translate(-29.821 -46.821)"/><path style="opacity:.03;fill:#000;fill-opacity:1" d="M135.658 64.002c-24.246.015-48.482.147-72.691.629-5.613-.121-12.489 1.99-13.334 8.453-2.395 10.535-1.02 21.501-1.524 32.16.06 12.906-.006 25.833-.058 38.756h207.906c.075-21.682.127-43.35-.719-64.871-.18-5.444-1.61-13.004-8.314-13.613-12.705-2.46-25.698-.877-38.524-1.446-24.241.018-48.496-.083-72.742-.068z" transform="translate(-29.821 -46.821)"/><path style="opacity:.02;fill:#000;fill-opacity:1" d="M152 64.018v159.906c30.304-.156 60.575.213 90.855-.904 5.341-.245 11.15-3.059 11.758-8.983 2.14-11.797.893-23.831 1.334-35.734-.21-33.093.583-66.302-.709-99.174-.18-5.444-1.61-13.004-8.314-13.613-12.705-2.46-25.698-.877-38.524-1.446-18.795.014-37.599-.033-56.4-.052z" transform="translate(-29.821 -46.821)"/></g><g style="display:inline"><path style="color:#000;font-style:normal;font-variant:normal;font-weight:400;font-stretch:normal;font-size:medium;line-height:normal;font-family:sans-serif;text-indent:0;text-align:start;text-decoration:none;text-decoration-line:none;text-decoration-style:solid;text-decoration-color:#000;letter-spacing:normal;word-spacing:normal;text-transform:none;writing-mode:lr-tb;direction:ltr;baseline-shift:baseline;text-anchor:start;white-space:normal;clip-rule:nonzero;display:inline;overflow:visible;visibility:visible;isolation:auto;mix-blend-mode:normal;color-interpolation:sRGB;color-interpolation-filters:linearRGB;solid-color:#000;solid-opacity:1;fill:gray;fill-opacity:1;fill-rule:nonzero;stroke:none;stroke-width:4.00079;stroke-linecap:butt;stroke-linejoin:miter;stroke-miterlimit:4;stroke-dasharray:none;stroke-dashoffset:0;stroke-opacity:1;marker:none;color-rendering:auto;image-rendering:auto;shape-rendering:auto;text-rendering:auto;enable-background:accumulate" d="M3.95 1c-1.245.015-2.155-.03-2.9.385-.371.207-.665.56-.827.998C.06 2.82 0 3.343 0 4v9c0 .658.06 1.179.223 1.617.162.439.456.79.828.998.744.416 1.654.37 2.898.385h8.102c1.244-.015 2.154.03 2.898-.385.372-.207.666-.56.828-.998.163-.438.223-.96.223-1.617V4c0-.658-.06-1.179-.223-1.617a1.873 1.873 0 0 0-.828-.998c-.744-.416-1.654-.37-2.898-.385H3.954ZM1.112 4H14.886c.089 2.323.125 5.877.126 8 0 1 .207 2.328-.766 2.775-.734.24-2.202.225-4.18.225H5.934c-1.978 0-3.446.016-4.18-.225C.78 14.328.988 13 .988 12c.001-2.123.037-5.677.125-8Z" transform="matrix(10.61516 0 0 8.87197 37.255 22.767)" color="#000" fill="gray"/><path d="M116.753 105.747v6.395h70.494v-6.395zm0 19.187v6.396h70.494v-6.396zM99.13 144.12v19.187h105.74v-19.187zm8.812 6.396h88.116v6.396h-88.116zm8.811 25.583v6.396h70.494V176.1zm0 19.187v6.396h70.494v-6.396z" style="line-height:normal;font-variant-ligatures:normal;font-variant-position:normal;font-variant-caps:normal;font-variant-numeric:normal;font-variant-alternates:normal;font-feature-settings:normal;text-indent:0;text-align:start;text-decoration-line:none;text-decoration-style:solid;text-decoration-color:#000;text-transform:none;text-orientation:mixed;shape-padding:0;isolation:auto;mix-blend-mode:normal;stroke-width:7.50714" color="#000" font-weight="400" font-family="sans-serif" overflow="visible" fill="gray" transform="translate(-29.821 -46.821)"/><path style="fill:#89a02c;stroke-width:.353553" d="M86.974 62.049v-3.006h70.357V65.054H86.974ZM86.974 81.317v-3.182h70.357V84.5H86.974ZM69.296 106.95v-9.37H175.01v18.74H69.296Zm97.153-.089.101-3.27H78.135v6.72l44.106-.09 44.106-.09zM86.974 132.406V129.4h70.357v6.01H86.974ZM86.974 151.674v-3.182h70.357v6.364H86.974Z"/></g></g></svg>