<?xml version="1.0" encoding="UTF-8" standalone="no"?>
<svg
   enable-background="new 0 0 512 512"
   height="512px"
   id="Layer_1"
   version="1.1"
   viewBox="0 0 512 512"
   width="512px"
   xml:space="preserve"
   sodipodi:docname="comment_upd.svg"
   inkscape:version="1.2 (dc2aedaf03, 2022-05-15)"
   xmlns:inkscape="http://www.inkscape.org/namespaces/inkscape"
   xmlns:sodipodi="http://sodipodi.sourceforge.net/DTD/sodipodi-0.dtd"
   xmlns:xlink="http://www.w3.org/1999/xlink"
   xmlns="http://www.w3.org/2000/svg"
   xmlns:svg="http://www.w3.org/2000/svg"><defs
     id="defs15"><linearGradient
       id="linearGradient2858"
       inkscape:swatch="solid"><stop
         style="stop-color:#000000;stop-opacity:1;"
         offset="0"
         id="stop2856" /></linearGradient><linearGradient
       inkscape:collect="always"
       xlink:href="#linearGradient2858"
       id="linearGradient2860"
       x1="62.56"
       y1="255.9995"
       x2="449.441"
       y2="255.9995"
       gradientUnits="userSpaceOnUse" /><inkscape:path-effect
       effect="fill_between_many"
       method="originald"
       linkedpaths="#path2,0,1|"
       id="path-effect2862" /></defs><sodipodi:namedview
     id="namedview13"
     pagecolor="#ffffff"
     bordercolor="#000000"
     borderopacity="0.25"
     inkscape:showpageshadow="2"
     inkscape:pageopacity="0.0"
     inkscape:pagecheckerboard="0"
     inkscape:deskcolor="#d1d1d1"
     showgrid="false"
     inkscape:zoom="1.5683594"
     inkscape:cx="115.40722"
     inkscape:cy="256.6376"
     inkscape:window-width="1878"
     inkscape:window-height="1048"
     inkscape:window-x="42"
     inkscape:window-y="32"
     inkscape:window-maximized="1"
     inkscape:current-layer="Layer_1" /><path
     inkscape:original-d="M 0,0"
     inkscape:path-effect="#path-effect2862"
     d="M 449.441,393.818 V 178.852 c 0,-31.555 -27.967,-57.236 -62.365,-57.236 H 369.99 v -3.434 c 0,-31.566 -27.967,-57.236 -62.365,-57.236 H 284.591 152.586 124.925 c -34.388,0 -62.365,25.67 -62.365,57.236 v 214.965 c 0,31.555 27.978,57.236 62.365,57.236 h 17.084 v 3.435 c 0,31.565 27.978,57.235 62.366,57.235 h 27.661 132.005 11.867 11.167 c 34.399,0 62.366,-25.669 62.366,-57.235 z"
     id="path2864"
     class="UnoptimicedTransforms"
     style="fill:#ffffff;fill-opacity:1" /><path
     d="M449.441,393.818V178.852c0-31.555-27.967-57.236-62.365-57.236H369.99v-3.434c0-31.566-27.967-57.236-62.365-57.236  h-23.034H152.586h-27.661c-34.388,0-62.365,25.67-62.365,57.236v214.965c0,31.555,27.978,57.236,62.365,57.236h17.084v3.435  c0,31.565,27.978,57.235,62.366,57.235h27.661h132.005h11.867h11.167C421.474,451.053,449.441,425.384,449.441,393.818z   M364.041,432.318H232.036h-27.661c-23.177,0-41.956-17.237-41.956-38.5v-3.435v-18.736V178.852c0-21.263,18.779-38.5,41.956-38.5  h27.661h117.545h14.46h5.949h17.085c23.177,0,41.956,17.237,41.956,38.5v214.966c0,21.263-18.779,38.5-41.956,38.5h-11.167H364.041z  "
     id="path2"
     style="fill:url(#linearGradient2860);fill-opacity:1"
     class="UnoptimicedTransforms" /><path
     d="m 183.94391,231.5881 h 225.77917 c 6.23649,0 11.2866,-12.54327 11.2866,-28.02899 0,-15.48572 -5.05011,-28.02554 -11.2866,-28.02554 H 183.94391 c -6.23649,0 -11.28799,12.53982 -11.28799,28.02554 0,15.48572 5.0515,28.02899 11.28799,28.02899 z"
     id="path4-3"
     style="fill:#4ea9cb;fill-opacity:1;stroke-width:2.19164" /><path
     d="m 197.71082,212.41293 h 162.334 c 4.484,0 8.115,-3.632 8.115,-8.116 0,-4.484 -3.631,-8.115 -8.115,-8.115 h -162.334 c -4.484,0 -8.116,3.631 -8.116,8.115 0,4.484 3.632,8.116 8.116,8.116 z"
     id="path4"
     style="opacity:0.8" /><path
     d="m 189.90567,259.79639 c 0,4.484 3.642,8.115 8.126,8.115 h 152.119 c 4.484,0 8.126,-3.631 8.126,-8.115 0,-4.484 -3.642,-8.127 -8.126,-8.127 h -152.119 c -4.484,0 -8.126,3.642 -8.126,8.127 z"
     id="path6" /><path
     d="M348.083,317.102c0-4.484-3.632-8.116-8.116-8.116h-142.57c-4.484,0-8.116,3.632-8.116,8.116s3.631,8.126,8.116,8.126  h142.57C344.451,325.228,348.083,321.587,348.083,317.102z"
     id="path8" /><path
     d="m 339.5081,370.02862 c 0,-4.484 -3.642,-8.115 -8.126,-8.115 h -133.602 c -4.484,0 -8.116,3.631 -8.116,8.115 0,4.484 3.631,8.116 8.116,8.116 h 133.602 c 4.485,0 8.126,-3.632 8.126,-8.116 z"
     id="path10" /></svg>
